<svg xmlns="http://www.w3.org/2000/svg" width="15" height="15" viewBox="0 0 15 15">
    <path fill="#FFF" fill-rule="nonzero" d="M14.664 11.864l-2.317-2.322c-.461-.46-1.225-.446-1.703.032l-1.167 1.17a34.12 34.12 0 0 1-.23-.129c-.737-.409-1.746-.97-2.807-2.034C5.375 7.514 4.815 6.5 4.405 5.762c-.043-.078-.084-.154-.125-.226l.783-.783.385-.387c.478-.48.492-1.245.031-1.707L3.163.337C2.703-.124 1.938-.11 1.46.369l-.653.658.018.018c-.22.28-.402.603-.538.951a3.95 3.95 0 0 0-.24.965C-.259 5.502.9 7.825 4.045 10.977c4.347 4.357 7.85 4.028 8.002 4.011.329-.039.644-.118.965-.243a3.76 3.76 0 0 0 .945-.536l.014.012.662-.649c.477-.48.49-1.245.03-1.708z"/>
</svg>
