<svg xmlns="http://www.w3.org/2000/svg" id="call-gradient" width="18" height="18" viewBox="0 0 18 18">
    <defs>
        <style>
            .cls-1{fill:rgba(0,158,162,0)}.cls-2{fill:#009ea2}
        </style>
    </defs>
    <path id="call-gradient_background" d="M0 0h18v18H0z" class="cls-1" data-name="call-gradient background"/>
    <g id="call-answer">
        <path id="Shape" d="M17.6 14.236l-2.78-2.787a1.445 1.445 0 0 0-2.042.039l-1.4 1.4-.278-.155a13.8 13.8 0 0 1-3.367-2.442 13.949 13.949 0 0 1-2.443-3.38l-.151-.271.938-.94.46-.465a1.454 1.454 0 0 0 .039-2.047L3.8.407a1.446 1.446 0 0 0-2.046.035l-.784.793.021.021A4.53 4.53 0 0 0 .345 2.4a4.7 4.7 0 0 0-.289 1.157c-.366 3.051 1.023 5.838 4.8 9.619 5.22 5.225 9.42 4.831 9.6 4.81a4.661 4.661 0 0 0 2.292-.937l.018.014.794-.779a1.453 1.453 0 0 0 .04-2.048z" class="cls-2"/>
    </g>
</svg>
