<svg xmlns="http://www.w3.org/2000/svg" id="ILT_bird-w" width="150" height="60.268" data-name="ILT bird-w" viewBox="0 0 150 60.268">
    <defs>
        <style>
            .cls-1{fill:rgba(0,0,0,0)}.cls-2{fill:#fff}
        </style>
    </defs>
    <path id="ILT_bird-w_background" d="M0 0h150v60.268H0z" class="cls-1" data-name="ILT bird-w background"/>
    <g id="ILT_bird-w-2" data-name="ILT bird-w">
        <g id="newbird-ilt-w">
            <path id="Shape" d="M6.8 9.008C5.324 14.886 0 19.525 0 19.525c6.7-4.752 7.2-7.385 7.609-8.7a14.077 14.077 0 0 1 2.943-5.267C12.379 3.439 19.685 0 19.685 0 8.524 3.947 7.609 6.58 6.8 9.008z" class="cls-2" transform="translate(128.454 8.285)"/>
            <path id="Shape-2" d="M2.232 4.24C.711 5.352 0 8.394 0 8.394V9.1c1.621-5.054 4.972-4.65 6.7-4.752a9.611 9.611 0 0 0 2.739-.505C11.467 2.227 18.773 0 18.773 0A38.829 38.829 0 0 0 8.121 3.035s-4.365.092-5.889 1.205z" class="cls-2" data-name="Shape" transform="translate(129.367 8.299)"/>
            <path id="Shape-3" d="M0 0s2.387 5.357 9.459 10.921c-4.691-2.289-7.53-3.337-7.53-3.337a17.081 17.081 0 0 0 6.461 6 45.38 45.38 0 0 0-6.252-.847 16.846 16.846 0 0 0 7.222 4.494c-3.2.261-3.571 1.17-3.571 1.17s1.111 2.532 7.7 2.832 10.459-2.423 10.459-2.423S11.263 5.562 0 0z" class="cls-2" data-name="Shape" transform="translate(102.985)"/>
            <path id="Shape-4" d="M17.657 0S4.566 1.616 0 4.955a25.531 25.531 0 0 0 12.9-2.222 18.742 18.742 0 0 0-4.781 4.043s2.934.175 6.363-2.95a26.253 26.253 0 0 0-2 3.658A7.9 7.9 0 0 0 17.657 0z" class="cls-2" data-name="Shape" transform="translate(103.087 23.259)"/>
            <path id="Shape-5" d="M22.39 9.25A55.191 55.191 0 0 0 25.986 0S21.8 6.792 20.072 10.552A46.6 46.6 0 0 0 8.725 19.62 50.266 50.266 0 0 0 0 35.394a77.747 77.747 0 0 1 19.43-23.24 3.267 3.267 0 0 0-.051.185c-.6 2.629-5.365 11.828-7.5 14.461 0 0 4.768-4.551 9.232-14.665.3-.669.565-1.279.813-1.846a54.616 54.616 0 0 1 5.683-3.524A53.918 53.918 0 0 0 22.39 9.25z" class="cls-2" data-name="Shape" transform="translate(97.599 24.069)"/>
            <path id="Shape-6" d="M1.523 4.477A1.263 1.263 0 0 1 1 4.364a1.067 1.067 0 0 1-.433-.383H.538v.438H0V0h.551v2.057H.57a1.148 1.148 0 0 1 .391-.349 1.177 1.177 0 0 1 .563-.144h.054a1.392 1.392 0 0 1 .545.11 1.339 1.339 0 0 1 .44.309 1.391 1.391 0 0 1 .283.461 1.571 1.571 0 0 1 .1.57 1.626 1.626 0 0 1-.1.573 1.4 1.4 0 0 1-.281.461 1.3 1.3 0 0 1-.439.312 1.4 1.4 0 0 1-.555.115h-.048zm-.062-.452h.029a.868.868 0 0 0 .665-.308.986.986 0 0 0 .176-.32 1.209 1.209 0 0 0 .056-.365 1.187 1.187 0 0 0-.058-.374 1.023 1.023 0 0 0-.176-.321.861.861 0 0 0-.292-.23.938.938 0 0 0-.383-.081h-.032a.88.88 0 0 0-.665.3 1.026 1.026 0 0 0-.193.321 1.092 1.092 0 0 0-.067.378 1.117 1.117 0 0 0 .067.381.969.969 0 0 0 .193.316.909.909 0 0 0 .3.22.9.9 0 0 0 .372.081z" class="cls-2" data-name="Shape" transform="translate(40.22 33.255)"/>
            <path id="Shape-7" d="M1.489 2.174L2.258 0h.588L1.5 3.425a2.09 2.09 0 0 1-.153.314.966.966 0 0 1-.195.231.779.779 0 0 1-.259.15 1.1 1.1 0 0 1-.357.053H.354a1.356 1.356 0 0 1-.185-.033l.053-.485A.908.908 0 0 0 .5 3.7a.4.4 0 0 0 .322-.12 1.137 1.137 0 0 0 .195-.342l.176-.462L0 .009h.616z" class="cls-2" data-name="Shape" transform="translate(43.51 34.905)"/>
            <path id="Shape-8" d="M.924 0H2.2l-.72 3.85h1.472l-.206 1.112H0L.924 0z" class="cls-2" data-name="Shape" transform="translate(48.19 32.701)"/>
            <path id="Shape-9" d="M.924 0H2.2l-.929 4.962H0L.924 0z" class="cls-2" data-name="Shape" transform="translate(51.77 32.701)"/>
            <path id="Shape-10" d="M1.572 4.962H0L.927 0h1.521c.816 0 1.205.067 1.5.482A1.016 1.016 0 0 1 4.1 1.3a1.43 1.43 0 0 1-.765 1 .942.942 0 0 1 .607 1.153 1.762 1.762 0 0 1-.661 1.079 2.37 2.37 0 0 1-1.709.43zm.012-2.017l-.169.9h.6c.156 0 .632 0 .72-.475a.341.341 0 0 0-.052-.291c-.115-.139-.366-.139-.5-.139zm.345-1.83l-.143.771h.446c.175 0 .538 0 .612-.4a.318.318 0 0 0-.043-.27.454.454 0 0 0-.357-.1h-.515z" class="cls-2" data-name="Shape" transform="translate(53.954 32.701)"/>
            <path id="Shape-11" d="M.922 0h2.767L3.48 1.112H1.934l-.144.773h1.5L3.084 3h-1.5l-.16.852h1.549l-.208 1.11H0L.922 0z" class="cls-2" data-name="Shape" transform="translate(58.298 32.701)"/>
            <path id="Shape-12" d="M1.218 4.963H0L.927 0H2.5c.9 0 1.2.12 1.468.356a1.452 1.452 0 0 1 .358 1.354A1.916 1.916 0 0 1 2.8 3.272L3.833 4.96h-1.45l-.853-1.6h-.013l-.3 1.6zM1.677 2.5h.463a.852.852 0 0 0 .966-.711.535.535 0 0 0-.089-.458.764.764 0 0 0-.606-.211h-.464L1.691 2.5z" class="cls-2" data-name="Shape" transform="translate(61.85 32.701)"/>
            <path id="Shape-13" d="M.982 1.112H0L.206 0h3.23l-.208 1.112h-.975l-.716 3.85H.266l.716-3.85z" class="cls-2" data-name="Shape" transform="translate(66.745 32.701)"/>
            <path id="Shape-14" d="M.9 3.16L0 0h1.38l.368 1.992L2.867 0h1.366L2.172 3.16l-.336 1.8H.565L.9 3.16z" class="cls-2" data-name="Shape" transform="translate(70.302 32.701)"/>
            <path id="Shape-15" d="M.982 1.112H0L.208 0h3.228L3.23 1.112h-.975l-.715 3.85H.266l.716-3.85z" class="cls-2" data-name="Shape" transform="translate(76.872 32.701)"/>
            <path id="Shape-16" d="M1.218 4.963H0L.927 0h1.557c.906 0 1.205.12 1.468.356a1.447 1.447 0 0 1 .362 1.354 1.916 1.916 0 0 1-1.528 1.562L3.822 4.96h-1.45l-.855-1.6-.3 1.6zm.707-3.847L1.668 2.5h.449a.852.852 0 0 0 .966-.711.535.535 0 0 0-.089-.458.764.764 0 0 0-.606-.211z" class="cls-2" data-name="Shape" transform="translate(80.245 32.701)"/>
            <path id="Shape-17" d="M1.366 4.962H0L2.922 0h1l1.056 4.961H3.6l-.108-.715h-1.73l-.4.715zm1.761-3.42L2.3 3.24h1.042l-.195-1.7h-.02z" class="cls-2" data-name="Shape" transform="translate(84.238 32.701)"/>
            <path id="Shape-18" d="M1.306 0l.354 3.48h.014L3.33 0h1.313L2.052 4.962H.739L0 0z" class="cls-2" data-name="Shape" transform="translate(89.119 32.701)"/>
            <path id="Shape-19" d="M.924 0h2.765l-.206 1.112H1.934l-.144.773h1.5L3.084 3h-1.5l-.157.852h1.546l-.208 1.11H0L.924 0z" class="cls-2" data-name="Shape" transform="translate(93.06 32.701)"/>
            <path id="Shape-20" d="M.924 0H2.2l-.72 3.85h1.472l-.206 1.112H0L.924 0z" class="cls-2" data-name="Shape" transform="translate(96.647 32.701)"/>
            <path id="Shape-21" d="M0 9.128V0h1.195v9.128z" class="cls-2" data-name="Shape" transform="translate(.16 18.897)"/>
            <path id="Shape-22" d="M7.7 9.281H6.5v-5.1a4.458 4.458 0 0 0-.482-2.366 1.657 1.657 0 0 0-1.487-.734 3.073 3.073 0 0 0-1.054.192 3.59 3.59 0 0 0-.977.542 4.213 4.213 0 0 0-.8.833 3.238 3.238 0 0 0-.5 1.046v5.587H0V.153h1.084v2.078A4.3 4.3 0 0 1 2.7.615 4.411 4.411 0 0 1 4.981 0a2.735 2.735 0 0 1 1.283.28 2.178 2.178 0 0 1 .841.785 3.651 3.651 0 0 1 .463 1.244 8.818 8.818 0 0 1 .139 1.629z" class="cls-2" data-name="Shape" transform="translate(3.779 18.744)"/>
            <path id="Shape-23" d="M4.344 12.968a4 4 0 0 1-1.723-.392 4.448 4.448 0 0 1-1.39-1.043 4.763 4.763 0 0 1-.905-1.5A4.9 4.9 0 0 1 0 8.255a5.292 5.292 0 0 1 .317-1.83 4.833 4.833 0 0 1 .871-1.516 4.071 4.071 0 0 1 1.318-1.025 3.773 3.773 0 0 1 1.639-.376h.114a3.573 3.573 0 0 1 1.994.605 4.611 4.611 0 0 1 1.39 1.464V0h1.2v11.247c0 .331.138.492.421.492v1.05a2.177 2.177 0 0 1-.421.052h-.022a1.1 1.1 0 0 1-.715-.265.837.837 0 0 1-.317-.658v-.893a4.019 4.019 0 0 1-1.475 1.419 3.911 3.911 0 0 1-1.933.524zm.09-8.41a2.84 2.84 0 0 0-1.3.317 3.324 3.324 0 0 0-1.028.833 3.7 3.7 0 0 0-.66 1.182 4.168 4.168 0 0 0-.232 1.366 3.77 3.77 0 0 0 .264 1.4 3.678 3.678 0 0 0 .72 1.154 3.427 3.427 0 0 0 1.081.8 3.088 3.088 0 0 0 1.338.307h.023a2.831 2.831 0 0 0 .943-.175 3.919 3.919 0 0 0 .941-.482 3.184 3.184 0 0 0 .745-.718 1.962 1.962 0 0 0 .371-.884V6.836a3.177 3.177 0 0 0-.512-.884 4.03 4.03 0 0 0-.764-.727 3.69 3.69 0 0 0-.927-.492 2.914 2.914 0 0 0-.967-.175z" class="cls-2" data-name="Shape" transform="translate(13.199 15.232)"/>
            <path id="Shape-24" d="M4.535 9.482a4.376 4.376 0 0 1-1.781-.376A4.466 4.466 0 0 1 1.3 8.071a4.792 4.792 0 0 1-.957-1.514A4.926 4.926 0 0 1 0 4.711 4.811 4.811 0 0 1 .343 2.9a4.664 4.664 0 0 1 .949-1.49A4.5 4.5 0 0 1 2.744.393a4.465 4.465 0 0 1 5.094 1.024 4.79 4.79 0 0 1 1.268 3.278v.279a.716.716 0 0 1-.019.194H1.249a3.832 3.832 0 0 0 .345 1.357A3.7 3.7 0 0 0 2.339 7.6a3.344 3.344 0 0 0 1.047.71 3.121 3.121 0 0 0 1.239.254h.02a3.207 3.207 0 0 0 .877-.124 3.469 3.469 0 0 0 .808-.333A2.98 2.98 0 0 0 7 7.594a2.191 2.191 0 0 0 .463-.674L8.5 7.2a3.07 3.07 0 0 1-.6.924 4.131 4.131 0 0 1-.9.718 4.376 4.376 0 0 1-1.12.458 4.9 4.9 0 0 1-1.289.178zM4.589.949a3.3 3.3 0 0 0-2.3.93 3.363 3.363 0 0 0-.719 1.05 3.979 3.979 0 0 0-.325 1.332h6.719a3.62 3.62 0 0 0-.343-1.341 3.559 3.559 0 0 0-.729-1.041 3.3 3.3 0 0 0-2.303-.93z" class="cls-2" data-name="Shape" transform="translate(23.906 18.719)"/>
            <path id="Shape-25" d="M1.2 13.017H0V.158h1.072v1.77A4.449 4.449 0 0 1 2.531.543 3.737 3.737 0 0 1 4.471 0h.054a3.883 3.883 0 0 1 1.7.4A4.436 4.436 0 0 1 7.6 1.445a4.874 4.874 0 0 1 .9 1.51 4.894 4.894 0 0 1 .326 1.769 5.549 5.549 0 0 1-.3 1.821 4.657 4.657 0 0 1-.855 1.507 4.078 4.078 0 0 1-1.317 1.025A3.756 3.756 0 0 1 4.7 9.46h-.1a3.6 3.6 0 0 1-1.972-.587A4.687 4.687 0 0 1 1.2 7.395v5.621zM4.215 1.05H4.2a2.783 2.783 0 0 0-.959.185 3.885 3.885 0 0 0-.926.492 3.287 3.287 0 0 0-.739.718 1.936 1.936 0 0 0-.377.868v2.8a4.176 4.176 0 0 0 .534.923 3.718 3.718 0 0 0 .739.727 3.54 3.54 0 0 0 .889.482 2.761 2.761 0 0 0 .94.164h.07a2.9 2.9 0 0 0 1.312-.316 3.343 3.343 0 0 0 1.035-.831 3.744 3.744 0 0 0 .66-1.175A4.111 4.111 0 0 0 7.61 4.73a3.776 3.776 0 0 0-.264-1.4 3.908 3.908 0 0 0-.72-1.173 3.469 3.469 0 0 0-1.081-.807 3.147 3.147 0 0 0-1.33-.3z" class="cls-2" data-name="Shape" transform="translate(34.649 18.74)"/>
            <path id="Shape-26" d="M4.535 9.466a4.394 4.394 0 0 1-1.783-.376A4.482 4.482 0 0 1 1.3 8.055a4.779 4.779 0 0 1-.957-1.514A4.926 4.926 0 0 1 0 4.695a4.8 4.8 0 0 1 .343-1.812 4.659 4.659 0 0 1 .949-1.489A4.532 4.532 0 0 1 2.742.377a4.647 4.647 0 0 1 3.666 0A4.35 4.35 0 0 1 7.841 1.4a4.824 4.824 0 0 1 1.266 3.279v.279a.674.674 0 0 1-.018.194h-7.84a3.828 3.828 0 0 0 .342 1.357 3.741 3.741 0 0 0 .748 1.078 3.326 3.326 0 0 0 1.046.713 3.123 3.123 0 0 0 1.236.253h.019a3.226 3.226 0 0 0 .879-.124 3.491 3.491 0 0 0 .808-.333 2.99 2.99 0 0 0 .661-.519 2.2 2.2 0 0 0 .464-.677l1.038.282a3.067 3.067 0 0 1-.6.923 4.155 4.155 0 0 1-.9.718 4.356 4.356 0 0 1-1.125.461 4.911 4.911 0 0 1-1.28.181zM4.577.94a3.278 3.278 0 0 0-1.254.247 3.231 3.231 0 0 0-1.047.692 3.351 3.351 0 0 0-.72 1.05 3.98 3.98 0 0 0-.324 1.332l6.731-.016a3.655 3.655 0 0 0-1.08-2.382A3.257 3.257 0 0 0 4.6.94h-.023z" class="cls-2" data-name="Shape" transform="translate(44.65 18.735)"/>
            <path id="Shape-27" d="M7.7 9.281H6.5v-5.1a4.458 4.458 0 0 0-.482-2.366 1.657 1.657 0 0 0-1.487-.734 3.073 3.073 0 0 0-1.054.192 3.59 3.59 0 0 0-.982.542 4.213 4.213 0 0 0-.8.833 3.238 3.238 0 0 0-.509 1.043v5.59H0V.153h1.091v2.078A4.3 4.3 0 0 1 2.712.615 4.411 4.411 0 0 1 4.988 0a2.735 2.735 0 0 1 1.283.28 2.178 2.178 0 0 1 .843.789 3.65 3.65 0 0 1 .463 1.244 8.818 8.818 0 0 1 .139 1.629z" class="cls-2" data-name="Shape" transform="translate(55.39 18.744)"/>
            <path id="Shape-28" d="M4.346 12.968a4.012 4.012 0 0 1-1.725-.392 4.5 4.5 0 0 1-1.39-1.043 4.763 4.763 0 0 1-.905-1.5A4.9 4.9 0 0 1 0 8.255a5.292 5.292 0 0 1 .317-1.83 4.867 4.867 0 0 1 .868-1.516A4.083 4.083 0 0 1 2.5 3.884a3.767 3.767 0 0 1 1.636-.377h.118a3.575 3.575 0 0 1 1.995.605A4.614 4.614 0 0 1 7.66 5.576V0h1.195v11.247c0 .326.142.492.421.492v1.05a2.162 2.162 0 0 1-.421.052h-.018a1.094 1.094 0 0 1-.72-.27.837.837 0 0 1-.317-.658v-.893a4.019 4.019 0 0 1-1.476 1.42 3.915 3.915 0 0 1-1.943.528zm.1-8.41a2.832 2.832 0 0 0-1.3.317 3.334 3.334 0 0 0-1.033.833 3.7 3.7 0 0 0-.66 1.182 4.168 4.168 0 0 0-.233 1.365 3.77 3.77 0 0 0 .264 1.4 3.678 3.678 0 0 0 .72 1.154 3.434 3.434 0 0 0 1.081.8 3.1 3.1 0 0 0 1.339.307h.017a2.831 2.831 0 0 0 .943-.175 3.918 3.918 0 0 0 .941-.482 3.185 3.185 0 0 0 .745-.718 1.959 1.959 0 0 0 .38-.884V6.836a3.175 3.175 0 0 0-.511-.884 4.062 4.062 0 0 0-.765-.727 3.668 3.668 0 0 0-.926-.492 2.916 2.916 0 0 0-.968-.175z" class="cls-2" data-name="Shape" transform="translate(64.809 15.232)"/>
            <path id="Shape-29" d="M4.532 9.476A4.368 4.368 0 0 1 2.751 9.1 4.462 4.462 0 0 1 1.3 8.067a4.81 4.81 0 0 1-.959-1.515A4.93 4.93 0 0 1 0 4.706a4.825 4.825 0 0 1 .341-1.812 4.682 4.682 0 0 1 .95-1.489A4.491 4.491 0 0 1 2.749.393a4.466 4.466 0 0 1 5.1 1.024A4.793 4.793 0 0 1 9.11 4.695v.279a.716.716 0 0 1-.019.194H1.246a3.85 3.85 0 0 0 .345 1.357A3.684 3.684 0 0 0 2.337 7.6a3.337 3.337 0 0 0 1.047.71 3.113 3.113 0 0 0 1.238.254h.019a3.22 3.22 0 0 0 .878-.124 3.49 3.49 0 0 0 .808-.333A2.97 2.97 0 0 0 7 7.594a2.173 2.173 0 0 0 .463-.674L8.5 7.2a3.076 3.076 0 0 1-.6.924 4.089 4.089 0 0 1-.9.718 4.356 4.356 0 0 1-1.122.458 4.9 4.9 0 0 1-1.29.173zm.03-8.539a3.3 3.3 0 0 0-1.248.244 3.22 3.22 0 0 0-1.045.693 3.35 3.35 0 0 0-.722 1.05 3.969 3.969 0 0 0-.325 1.331h6.739a3.636 3.636 0 0 0-.349-1.341 3.556 3.556 0 0 0-.739-1.04A3.3 3.3 0 0 0 4.562.938z" class="cls-2" data-name="Shape" transform="translate(75.519 18.724)"/>
            <path id="Shape-30" d="M7.7 9.286H6.5v-5.1a4.441 4.441 0 0 0-.484-2.366 1.655 1.655 0 0 0-1.487-.734 3.084 3.084 0 0 0-1.049.194 3.625 3.625 0 0 0-.977.542 4.213 4.213 0 0 0-.8.833A3.238 3.238 0 0 0 1.195 3.7v5.586H0V.158h1.088v2.077A4.3 4.3 0 0 1 2.709.62 4.425 4.425 0 0 1 4.976 0a2.728 2.728 0 0 1 1.283.28 2.185 2.185 0 0 1 .841.79 3.651 3.651 0 0 1 .463 1.244 8.809 8.809 0 0 1 .141 1.629z" class="cls-2" data-name="Shape" transform="translate(86.259 18.739)"/>
            <path id="Shape-31" d="M5.263 11.775a4.793 4.793 0 0 1-.308.138 4.873 4.873 0 0 1-.463.175 5.512 5.512 0 0 1-.6.159 3.445 3.445 0 0 1-.695.069 2.506 2.506 0 0 1-.739-.106 1.709 1.709 0 0 1-.616-.323 1.575 1.575 0 0 1-.421-.552 1.765 1.765 0 0 1-.157-.771v-6.53H0v-.946h1.267V0h1.195v3.083h2.11v.951h-2.11v6.2a.945.945 0 0 0 .359.743 1.235 1.235 0 0 0 .748.231 2.248 2.248 0 0 0 .9-.166 4.174 4.174 0 0 0 .493-.231z" class="cls-2" data-name="Shape" transform="translate(95.339 15.814)"/>
            <ellipse id="Oval" cx=".718" cy=".715" class="cls-2" rx=".718" ry=".715" transform="translate(0 15.357)"/>
        </g>
    </g>
</svg>
