<svg xmlns="http://www.w3.org/2000/svg" width="200" height="81" viewBox="0 0 200 81">
    <defs>
        <linearGradient id="a" x1="-166.228%" x2="145.359%" y1="231.489%" y2="-43.546%">
            <stop offset="9%" stop-color="#CE212B"/>
            <stop offset="11%" stop-color="#AC3741"/>
            <stop offset="14%" stop-color="#7F545E"/>
            <stop offset="17%" stop-color="#586D78"/>
            <stop offset="20%" stop-color="#38828D"/>
            <stop offset="23%" stop-color="#1F929D"/>
            <stop offset="26%" stop-color="#0E9DA8"/>
            <stop offset="30%" stop-color="#03A4AF"/>
            <stop offset="34%" stop-color="#00A6B1"/>
            <stop offset="53%" stop-color="#00677A"/>
            <stop offset="77%" stop-color="#2C2172"/>
        </linearGradient>
        <linearGradient id="b" x1="-190.909%" x2="135.821%" y1="468.915%" y2="-121.045%">
            <stop offset="9%" stop-color="#CE212B"/>
            <stop offset="11%" stop-color="#AC3741"/>
            <stop offset="14%" stop-color="#7F545E"/>
            <stop offset="17%" stop-color="#586D78"/>
            <stop offset="20%" stop-color="#38828D"/>
            <stop offset="23%" stop-color="#1F929D"/>
            <stop offset="26%" stop-color="#0E9DA8"/>
            <stop offset="30%" stop-color="#03A4AF"/>
            <stop offset="34%" stop-color="#00A6B1"/>
            <stop offset="53%" stop-color="#00677A"/>
            <stop offset="77%" stop-color="#2C2172"/>
        </linearGradient>
        <linearGradient id="c" x1="-86.879%" x2="169.242%" y1="179.262%" y2="-73.366%">
            <stop offset="9%" stop-color="#CE212B"/>
            <stop offset="11%" stop-color="#AC3741"/>
            <stop offset="14%" stop-color="#7F545E"/>
            <stop offset="17%" stop-color="#586D78"/>
            <stop offset="20%" stop-color="#38828D"/>
            <stop offset="23%" stop-color="#1F929D"/>
            <stop offset="26%" stop-color="#0E9DA8"/>
            <stop offset="30%" stop-color="#03A4AF"/>
            <stop offset="34%" stop-color="#00A6B1"/>
            <stop offset="53%" stop-color="#00677A"/>
            <stop offset="77%" stop-color="#2C2172"/>
        </linearGradient>
        <linearGradient id="d" x1="-74.671%" x2="272.693%" y1="315.418%" y2="-402.035%">
            <stop offset="9%" stop-color="#CE212B"/>
            <stop offset="11%" stop-color="#AC3741"/>
            <stop offset="14%" stop-color="#7F545E"/>
            <stop offset="17%" stop-color="#586D78"/>
            <stop offset="20%" stop-color="#38828D"/>
            <stop offset="23%" stop-color="#1F929D"/>
            <stop offset="26%" stop-color="#0E9DA8"/>
            <stop offset="30%" stop-color="#03A4AF"/>
            <stop offset="34%" stop-color="#00A6B1"/>
            <stop offset="53%" stop-color="#00677A"/>
            <stop offset="77%" stop-color="#2C2172"/>
        </linearGradient>
        <linearGradient id="e" x1="-2.801%" x2="219.358%" y1="86.607%" y2="-65.115%">
            <stop offset="9%" stop-color="#CD242B" stop-opacity=".99"/>
            <stop offset="11%" stop-color="#AE383F" stop-opacity=".99"/>
            <stop offset="14%" stop-color="#80555D" stop-opacity=".99"/>
            <stop offset="17%" stop-color="#596E77"/>
            <stop offset="20%" stop-color="#39828C"/>
            <stop offset="23%" stop-color="#20929C"/>
            <stop offset="26%" stop-color="#0E9DA8"/>
            <stop offset="30%" stop-color="#03A4AF"/>
            <stop offset="34%" stop-color="#00A6B1"/>
            <stop offset="53%" stop-color="#00677A"/>
            <stop offset="77%" stop-color="#2C2172"/>
        </linearGradient>
    </defs>
    <g fill="none" fill-rule="nonzero">
        <path fill="url(#a)" d="M182.528 23.416c-1.99 7.959-9.175 14.24-9.175 14.24 9.038-6.434 9.722-10 10.269-11.775a19.078 19.078 0 0 1 3.972-7.131c2.465-2.875 12.325-7.531 12.325-7.531-15.063 5.344-16.297 8.91-17.39 12.197z"/>
        <path fill="url(#b)" d="M177.597 16.978c-2.053 1.506-3.013 5.625-3.013 5.625v.96c2.188-6.847 6.71-6.3 9.038-6.438a12.931 12.931 0 0 0 3.697-.684c2.74-2.188 12.6-5.203 12.6-5.203-6.985.684-14.375 4.109-14.375 4.109s-5.89.125-7.947 1.631z"/>
        <path fill="url(#c)" d="M138.981 0s3.222 7.253 12.766 14.787c-6.331-3.1-10.163-4.518-10.163-4.518 1.875 3.337 5.097 6.01 8.72 8.125a61.05 61.05 0 0 0-8.438-1.147c2.6 2.912 6.087 4.831 9.746 6.084-4.325.353-4.818 1.585-4.818 1.585s1.5 3.428 10.393 3.834c8.894.406 14.113-3.281 14.113-3.281S154.181 7.53 138.981 0z"/>
        <path fill="url(#d)" d="M162.947 31.494s-17.666 2.187-23.828 6.71c0 0 8.047 1.187 17.412-3.01-2.531 1.643-5.144 3.625-6.456 5.475 0 0 3.96.237 8.588-3.994a35.584 35.584 0 0 0-2.7 4.953c7.256-2.603 6.984-10.134 6.984-10.134z"/>
        <path fill="url(#e)" d="M161.928 45.116c3.935-8.907 2.66-5.938 4.853-12.525 0 0-5.653 9.197-7.981 14.287-4.94 2.922-10.772 7.05-15.313 12.278-7.987 9.225-11.774 21.36-11.774 21.36s9.009-17.916 26.221-31.47c-.025.085-.05.173-.068.25-.81 3.56-7.241 16.017-10.12 19.582 0 0 6.435-6.162 12.46-19.856.4-.906.763-1.731 1.097-2.5a73.666 73.666 0 0 1 7.669-4.772 72.656 72.656 0 0 0-7.044 3.366z"/>
        <path fill="#000" d="M55 50.422v.594h-.722v-5.988h.744v2.785h.025c.137-.196.318-.358.528-.472.247-.135.525-.202.806-.194.262-.004.522.047.763.15.224.097.426.24.593.419.167.18.297.393.382.625.091.247.137.508.134.771a2.21 2.21 0 0 1-.134.776c-.085.23-.213.443-.378.625-.167.18-.37.323-.594.421-.247.107-.513.16-.781.157a1.722 1.722 0 0 1-.741-.154 1.444 1.444 0 0 1-.584-.518l-.041.003zm2.5-1.288a1.619 1.619 0 0 0-.078-.506 1.366 1.366 0 0 0-.238-.434 1.178 1.178 0 0 0-.393-.313 1.275 1.275 0 0 0-.541-.11 1.19 1.19 0 0 0-.919.41 1.422 1.422 0 0 0-.35.947c0 .176.03.35.09.516.06.158.147.303.26.428.112.125.248.226.4.297.163.075.34.113.519.11.36.012.705-.141.938-.416.104-.13.185-.277.237-.435.05-.16.075-.326.075-.494zM60.728 50.206l1.038-2.944h.793L60.737 51.9c-.056.147-.125.29-.206.425-.07.117-.159.223-.262.313a1.05 1.05 0 0 1-.35.203c-.156.05-.318.074-.481.072h-.241a1.825 1.825 0 0 1-.25-.044l.072-.657c.12.04.245.062.372.063a.54.54 0 0 0 .434-.163 1.54 1.54 0 0 0 .262-.462l.238-.625-1.606-3.75h.831l1.178 2.931z"/>
        <path fill="#CD242B" d="M66.281 44.278h1.716l-.966 5.213h1.988l-.278 1.506h-3.707l1.247-6.719zM71.112 44.278h1.716l-1.247 6.719h-1.715l1.246-6.719zM75.216 46.831h.609c.234 0 .725 0 .825-.537.1-.538-.369-.506-.625-.506h-.61l-.193 1.043h-.006zm-.494 2.66h.81c.215 0 .852 0 .971-.644.11-.581-.472-.581-.747-.581h-.806l-.228 1.225zm-.678-5.213h2.072c1.134 0 1.64.11 2.03.653.22.325.291.73.195 1.11a1.922 1.922 0 0 1-1.032 1.353c.647.219 1.007.906.82 1.562a2.39 2.39 0 0 1-.892 1.46c-.712.518-1.168.58-2.303.58h-2.121l1.25-6.718h-.02zM79.919 44.278h3.734l-.281 1.506h-2.088l-.193 1.047h2.025l-.278 1.506h-2.025l-.216 1.154h2.09l-.28 1.506h-3.732l1.244-6.719zM85.731 47.656h.625c1.01 0 1.25-.625 1.303-.962.113-.61-.275-.907-.937-.907h-.625l-.347 1.876-.019-.007zm-1.015-3.378h2.125c1.178 0 1.606.147 1.98.481.464.49.646 1.18.485 1.835a2.581 2.581 0 0 1-2.062 2.115l1.4 2.288h-1.96l-1.15-2.169h-.018l-.404 2.169H83.47l1.25-6.719h-.003zM91.4 45.784h-1.325l.278-1.506h4.36l-.282 1.506h-1.315l-.966 5.213h-1.716l.966-5.213zM96.09 48.556l-1.215-4.278h1.862l.497 2.697 1.51-2.697h1.844l-2.782 4.278-.453 2.44h-1.715l.453-2.44zM105.066 45.784h-1.325l.28-1.506h4.357l-.278 1.506h-1.316l-.965 5.213H104.1l.966-5.213zM110.54 47.656h.61c1.006 0 1.25-.625 1.303-.962.113-.61-.275-.907-.937-.907h-.625l-.347 1.876-.003-.007zm-1.015-3.378h2.122c1.181 0 1.61.147 1.981.481.466.488.65 1.18.488 1.835a2.581 2.581 0 0 1-2.063 2.115l1.4 2.288h-1.96l-1.152-2.169-.403 2.169h-1.644l1.25-6.719h-.019zM116.784 48.666h1.407l-.263-2.3h-.028l-1.116 2.3zm-.725 1.362l-.534.969h-1.844l3.944-6.719h1.353l1.422 6.719h-1.86l-.146-.969h-2.335zM122.031 44.278l.478 4.713h.02l2.234-4.713h1.771l-3.497 6.719h-1.771l-.997-6.719h1.762zM126.834 44.278h3.732l-.279 1.506h-2.09l-.194 1.047h2.025l-.278 1.506h-2.025l-.212 1.154h2.087l-.281 1.506h-3.731l1.246-6.719zM131.675 44.278h1.716l-.966 5.213h1.987l-.278 1.506h-3.706l1.247-6.719zM.216 37.947v-12.36h1.612v12.36z"/>
        <path fill="#000" d="M15.49 37.947h-1.612v-6.903c0-1.469-.217-2.537-.65-3.203a2.234 2.234 0 0 0-2.006-.994c-.486.002-.967.09-1.422.26a4.84 4.84 0 0 0-1.319.734c-.41.324-.772.704-1.078 1.128a4.39 4.39 0 0 0-.687 1.412v7.566H5.1v-12.36h1.463V28.4a5.819 5.819 0 0 1 2.187-2.188 5.937 5.937 0 0 1 3.072-.83c.6-.018 1.193.112 1.731.377.467.247.858.613 1.134 1.063.31.519.522 1.09.626 1.684.13.728.193 1.467.187 2.206l-.01 7.235zM23.722 38.184a5.363 5.363 0 0 1-2.372-.53 6.04 6.04 0 0 1-1.875-1.413 6.462 6.462 0 0 1-1.222-2.029 6.681 6.681 0 0 1-.44-2.409 7.21 7.21 0 0 1 .428-2.478 6.597 6.597 0 0 1 1.175-2.053 5.537 5.537 0 0 1 1.778-1.388 5.034 5.034 0 0 1 2.265-.509 4.825 4.825 0 0 1 2.791.819 6.194 6.194 0 0 1 1.875 1.981v-7.55h1.625v15.228c0 .444.188.666.569.666v1.422a2.878 2.878 0 0 1-.569.072 1.481 1.481 0 0 1-1-.36 1.14 1.14 0 0 1-.428-.89v-1.21a5.416 5.416 0 0 1-1.99 1.922 5.266 5.266 0 0 1-2.61.71zm.356-1.421a3.831 3.831 0 0 0 1.272-.238 5.25 5.25 0 0 0 1.269-.653 4.316 4.316 0 0 0 1.006-.972c.263-.351.435-.763.5-1.197v-3.822a4.319 4.319 0 0 0-.69-1.197 5.5 5.5 0 0 0-1.032-.984 4.928 4.928 0 0 0-1.25-.666 3.919 3.919 0 0 0-1.306-.237 3.803 3.803 0 0 0-1.803.428 4.528 4.528 0 0 0-1.388 1.128 5.038 5.038 0 0 0-.89 1.6 5.66 5.66 0 0 0-.313 1.85 5.131 5.131 0 0 0 1.328 3.463c.41.453.907.82 1.46 1.08.572.279 1.2.421 1.837.417zM38.456 38.184a5.919 5.919 0 0 1-2.478-.509 6.06 6.06 0 0 1-1.96-1.4 6.525 6.525 0 0 1-1.293-2.05 6.725 6.725 0 0 1-.462-2.5 6.563 6.563 0 0 1 .462-2.453c.296-.747.73-1.43 1.281-2.016a6.103 6.103 0 0 1 1.96-1.378 6.012 6.012 0 0 1 6.875 1.388 6.513 6.513 0 0 1 1.709 4.437v.378a.937.937 0 0 1-.025.263H33.947c.042.636.2 1.258.465 1.837a5 5 0 0 0 1.007 1.46c.405.407.885.734 1.412.962a4.303 4.303 0 0 0 2.881.175 4.65 4.65 0 0 0 1.091-.45 4 4 0 0 0 .903-.7 2.96 2.96 0 0 0 .625-.912l1.4.38a4.169 4.169 0 0 1-.806 1.25c-.355.38-.763.707-1.21.973a5.89 5.89 0 0 1-1.518.625 6.59 6.59 0 0 1-1.74.24zm4.553-7.068a4.969 4.969 0 0 0-.462-1.816 4.847 4.847 0 0 0-.984-1.41 4.466 4.466 0 0 0-6.216 0c-.412.408-.741.891-.972 1.422a5.416 5.416 0 0 0-.438 1.804h9.072zM53.069 38.184a4.863 4.863 0 0 1-2.763-.793 6.294 6.294 0 0 1-1.934-2.003V43h-1.613V25.587h1.447v2.397a5.978 5.978 0 0 1 1.969-1.875 5.019 5.019 0 0 1 2.638-.734c.814-.01 1.62.174 2.35.534a6.019 6.019 0 0 1 1.85 1.422 6.644 6.644 0 0 1 1.215 2.044c.292.765.441 1.578.44 2.397a7.553 7.553 0 0 1-.402 2.465 6.316 6.316 0 0 1-1.154 2.041 5.537 5.537 0 0 1-1.778 1.388 5.034 5.034 0 0 1-2.265.518zm-.45-1.421a3.878 3.878 0 0 0 1.815-.429 4.528 4.528 0 0 0 1.397-1.125c.39-.472.692-1.01.89-1.59a5.56 5.56 0 0 0 .313-1.838 5.131 5.131 0 0 0-.356-1.9 5.29 5.29 0 0 0-.972-1.587 4.687 4.687 0 0 0-1.46-1.094 4.206 4.206 0 0 0-1.815-.403 3.75 3.75 0 0 0-1.293.25 5.26 5.26 0 0 0-1.25.665c-.382.27-.718.598-.997.972-.264.344-.44.748-.51 1.175v3.794c.187.446.43.866.722 1.25.285.373.62.704.997.985.367.274.77.494 1.2.653.423.152.87.227 1.319.222zM66.45 38.184c-.854.011-1.7-.163-2.481-.509a6.081 6.081 0 0 1-1.956-1.4 6.525 6.525 0 0 1-1.294-2.05 6.725 6.725 0 0 1-.463-2.5 6.563 6.563 0 0 1 .463-2.453c.296-.747.73-1.43 1.281-2.016a6.122 6.122 0 0 1 1.956-1.378 6.25 6.25 0 0 1 4.947 0c.733.326 1.39.798 1.934 1.388a6.563 6.563 0 0 1 1.71 4.437v.378a.937.937 0 0 1-.025.263H61.94c.04.635.197 1.258.462 1.837.248.542.59 1.036 1.01 1.46a4.5 4.5 0 0 0 1.412.962 4.325 4.325 0 0 0 2.881.175 4.706 4.706 0 0 0 1.09-.45c.33-.191.629-.428.891-.703.263-.263.475-.572.626-.913l1.4.382a4.169 4.169 0 0 1-.807 1.25 5.675 5.675 0 0 1-1.21.972 5.89 5.89 0 0 1-1.518.625 6.59 6.59 0 0 1-1.728.243zm4.553-7.068a4.969 4.969 0 0 0-.462-1.816 4.906 4.906 0 0 0-.997-1.41 4.403 4.403 0 0 0-3.094-1.25 4.434 4.434 0 0 0-1.71.335 4.375 4.375 0 0 0-1.412.938c-.411.407-.741.89-.972 1.421a5.416 5.416 0 0 0-.437 1.803l9.084-.021zM85.14 37.947h-1.612v-6.903c0-1.469-.217-2.537-.65-3.203a2.234 2.234 0 0 0-2.006-.994c-.486.002-.967.09-1.422.26a4.84 4.84 0 0 0-1.325.734c-.41.324-.772.704-1.078 1.128a4.39 4.39 0 0 0-.688 1.412v7.566H74.75v-12.36h1.472V28.4a5.819 5.819 0 0 1 2.187-2.188 5.937 5.937 0 0 1 3.072-.83c.6-.018 1.194.112 1.732.377.468.248.86.617 1.137 1.07.31.518.521 1.089.625 1.683.13.729.193 1.467.188 2.207l-.022 7.228zM93.375 38.184a5.369 5.369 0 0 1-2.375-.53 6.078 6.078 0 0 1-1.875-1.413 6.462 6.462 0 0 1-1.222-2.029 6.681 6.681 0 0 1-.44-2.409 7.21 7.21 0 0 1 .428-2.478c.263-.75.66-1.445 1.171-2.053a5.537 5.537 0 0 1 1.779-1.388 5.034 5.034 0 0 1 2.284-.509 4.825 4.825 0 0 1 2.775.819 6.194 6.194 0 0 1 1.9 1.981v-7.55h1.612v15.228c0 .444.191.666.57.666v1.422a2.878 2.878 0 0 1-.57.072 1.481 1.481 0 0 1-.996-.366 1.14 1.14 0 0 1-.428-.89v-1.21a5.416 5.416 0 0 1-1.991 1.922c-.796.464-1.7.71-2.622.715zm.353-1.421A3.831 3.831 0 0 0 95 36.525a5.25 5.25 0 0 0 1.269-.653 4.316 4.316 0 0 0 1.006-.972c.268-.35.444-.762.512-1.197v-3.822a4.319 4.319 0 0 0-.69-1.197 5.5 5.5 0 0 0-1.031-.984 4.928 4.928 0 0 0-1.25-.666 3.919 3.919 0 0 0-1.307-.237 3.803 3.803 0 0 0-1.803.428 4.528 4.528 0 0 0-1.394 1.128 5.038 5.038 0 0 0-.89 1.6 5.66 5.66 0 0 0-.313 1.85 5.131 5.131 0 0 0 1.329 3.463c.41.453.906.82 1.459 1.08.57.278 1.197.42 1.831.417zM108.106 38.184a5.919 5.919 0 0 1-2.478-.509 6.06 6.06 0 0 1-1.96-1.4 6.525 6.525 0 0 1-1.293-2.05 6.725 6.725 0 0 1-.46-2.5c-.005-.84.151-1.672.46-2.453.296-.747.73-1.43 1.281-2.016a6.103 6.103 0 0 1 1.969-1.372 6.012 6.012 0 0 1 6.875 1.388 6.513 6.513 0 0 1 1.71 4.437v.378a.937.937 0 0 1-.026.263h-10.587c.042.636.2 1.259.466 1.837a5 5 0 0 0 1.006 1.46c.405.407.885.734 1.412.962a4.303 4.303 0 0 0 2.881.175 4.65 4.65 0 0 0 1.091-.45 4 4 0 0 0 .903-.7 2.96 2.96 0 0 0 .625-.912l1.4.381a4.169 4.169 0 0 1-.806 1.25c-.355.38-.763.707-1.21.972a5.89 5.89 0 0 1-1.518.625 6.59 6.59 0 0 1-1.74.234zm4.553-7.068c-.04-.63-.2-1.246-.472-1.816a4.847 4.847 0 0 0-.996-1.41 4.466 4.466 0 0 0-4.803-.937 4.347 4.347 0 0 0-1.41.938c-.412.407-.743.89-.975 1.422a5.416 5.416 0 0 0-.437 1.803h9.093zM126.8 37.947h-1.612v-6.903c0-1.469-.218-2.537-.654-3.203a2.231 2.231 0 0 0-2.006-.994 4.15 4.15 0 0 0-1.422.26c-.475.174-.92.422-1.319.734-.409.324-.772.704-1.078 1.128a4.39 4.39 0 0 0-.687 1.412v7.566h-1.613v-12.36h1.47V28.4a5.819 5.819 0 0 1 2.187-2.188 5.956 5.956 0 0 1 3.059-.837c.6-.017 1.194.113 1.731.378.47.247.864.617 1.14 1.069.31.519.522 1.09.626 1.684.131.728.195 1.467.19 2.206l-.012 7.235zM135.766 37.356c-.094.047-.232.11-.416.188a7.419 7.419 0 0 1-1.431.453 4.634 4.634 0 0 1-.938.094 3.372 3.372 0 0 1-.997-.144 2.303 2.303 0 0 1-.83-.438 2.131 2.131 0 0 1-.57-.746 2.397 2.397 0 0 1-.212-1.044v-8.844h-1.71v-1.281h1.71v-4.181h1.612v4.174h2.847v1.288h-2.847v8.4c0 .392.178.763.485 1.006.293.211.648.321 1.01.313.413.008.825-.068 1.208-.225.229-.09.451-.194.666-.313l.413 1.3z"/>
        <circle cx=".969" cy="21.762" r="1" fill="#CD242B"/>
    </g>
</svg>
